<svg xmlns="http://www.w3.org/2000/svg" viewBox="0 0 581.69 261"><defs><style>.cls-1{fill:#fff;}</style></defs><title>header</title><g id="Layer_2" data-name="Layer 2"><g id="Layer_1-2" data-name="Layer 1"><path class="cls-1" d="M22.2,214.2C8.4,209.7,0,196.2,0,172.5V43.5C0,13.5,13.5,0,34.8,0S69.6,13.5,69.6,43.5v129c0,25.5-9.6,39-25.5,42.6v5.4c0,17.4,5.1,22.5,13.5,22.5a28.43,28.43,0,0,0,8.1-1.2v18.3a43.55,43.55,0,0,1-9.6.9c-21.9,0-33.9-13.5-33.9-42ZM47.7,42c0-17.4-5.1-22.5-12.9-22.5S21.9,24.6,21.9,42V174c0,17.4,5.1,22.5,12.9,22.5s12.9-5.1,12.9-22.5Z"/><path class="cls-1" d="M113.4,133.8,84.6,3h23.1l17.4,94.8h.9L145.5,3h21.3L135.3,133.8V213H113.4Z"/><path class="cls-1" d="M183.3,3h27.6c24.3,0,39.3,15,39.3,46.5v21c0,28.5-16.8,36.3-16.8,36.3s18.9,7.2,18.9,37.2v22.5c0,31.5-15,46.5-39.3,46.5H183.3Zm27.6,94.5c10.8,0,17.4-6.6,17.4-27v-21c0-20.4-6.6-27-17.4-27h-5.7v75Zm2.1,96c10.8,0,17.4-6.6,17.4-27V144c0-20.4-6.6-27-17.4-27h-7.8v76.5Z"/><path class="cls-1" d="M293.4,3h27.3l26.7,210H325.8l-5.7-48H291.6l-5.7,48H264.29Zm24.3,141-7.5-66c-1.8-16.5-3.3-42-3.3-42h-1.2s-2.1,24-4.2,42L294,144Z"/><path class="cls-1" d="M365.39,3h21.9V192h31.8v21h-53.7Z"/><path class="cls-1" d="M434.09,3h53.4V24H456V96h27.3v21H456v75h32.1v21h-54Z"/><path class="cls-1" d="M527.69,3H555l26.7,210h-21.6l-5.7-48h-28.5l-5.7,48h-21.6ZM552,144l-7.5-66c-1.8-16.5-3.3-42-3.3-42H540s-2.1,24-4.2,42l-7.5,66Z"/></g></g></svg>